# xmcd
#
# Track frame offsets:
#	150
#	21831
#	42749
#	60152
#	76185
#	97398
#	123085
#	146499
#	163707
#	184033
#	199633
#	214619
#	231852
#
# Disc length: 3374 seconds
#
# Revision: 0
# Processed by: cddbd v1.5.2PL0 Copyright (c) Steve Scherf et al.
# Submitted via: EasyCDDAExtractor 16.0.1.1
#
DISCID=ad0d2c0d
DTITLE=Coco Montoya - Can't Look Back
DYEAR=2002
DGENRE=Blues
TTITLE0=Wish I Could Be That Strong
TTITLE1=Running Away From Love
TTITLE2=Something About You
TTITLE3=I Won't Beg
TTITLE4=Trip  Stumble And Fall
TTITLE5=Can't See The Streets For My Tears
TTITLE6=Same Old Thing
TTITLE7=Can't Look Back
TTITLE8=Women Have A Way With A Fool
TTITLE9=Back In A Cadillac
TTITLE10=No Longer A Part of Your Dreams
TTITLE11=Holding Out For You
TTITLE12=Free
EXTD=
EXTT0=
EXTT1=
EXTT2=
EXTT3=
EXTT4=
EXTT5=
EXTT6=
EXTT7=
EXTT8=
EXTT9=
EXTT10=
EXTT11=
EXTT12=
PLAYORDER=
